<svg xmlns="http://www.w3.org/2000/svg" width="820" height="500" viewBox="0 0 820 500" role="img" aria-label="What Shiftfly changes"><title>What Shiftfly changes</title><rect width="820" height="500" fill="#fcfcfb"/><text x="38.00" y="42.00" fill="#0b0b0b" font-size="19" font-weight="600" text-anchor="start" font-family='system-ui, -apple-system, "Segoe UI", sans-serif'>Shiftfly changes one tier</text><text x="38.00" y="66.00" fill="#52514e" font-size="12.5" font-weight="400" text-anchor="start" font-family='system-ui, -apple-system, "Segoe UI", sans-serif'>The building block and the group are Boardfly's, unchanged. Only the global tier is replaced.</text><text x="38.00" y="108.00" fill="#898781" font-size="11" font-weight="600" text-anchor="start" font-family='system-ui, -apple-system, "Segoe UI", sans-serif'>SHARED — unchanged from Boardfly</text><line x1="110.00" y1="152.00" x2="144.00" y2="186.00" stroke="#1baf7a" stroke-width="1.6" opacity="1.0"/><line x1="110.00" y1="152.00" x2="110.00" y2="220.00" stroke="#1baf7a" stroke-width="1.6" opacity="1.0"/><line x1="110.00" y1="152.00" x2="76.00" y2="186.00" stroke="#1baf7a" stroke-width="1.6" opacity="1.0"/><line x1="144.00" y1="186.00" x2="110.00" y2="220.00" stroke="#1baf7a" stroke-width="1.6" opacity="1.0"/><line x1="144.00" y1="186.00" x2="76.00" y2="186.00" stroke="#1baf7a" stroke-width="1.6" opacity="1.0"/><line x1="110.00" y1="220.00" x2="76.00" y2="186.00" stroke="#1baf7a" stroke-width="1.6" opacity="1.0"/><circle cx="110.00" cy="152.00" r="9.0" fill="#fcfcfb"/><circle cx="110.00" cy="152.00" r="7.0" fill="#1baf7a"/><circle cx="144.00" cy="186.00" r="9.0" fill="#fcfcfb"/><circle cx="144.00" cy="186.00" r="7.0" fill="#1baf7a"/><circle cx="110.00" cy="220.00" r="9.0" fill="#fcfcfb"/><circle cx="110.00" cy="220.00" r="7.0" fill="#1baf7a"/><circle cx="76.00" cy="186.00" r="9.0" fill="#fcfcfb"/><circle cx="76.00" cy="186.00" r="7.0" fill="#1baf7a"/><text x="110.00" y="248.00" fill="#52514e" font-size="11.5" font-weight="400" text-anchor="middle" font-family='system-ui, -apple-system, "Segoe UI", sans-serif'>building block</text><text x="110.00" y="264.00" fill="#898781" font-size="10.5" font-weight="400" text-anchor="middle" font-family='system-ui, -apple-system, "Segoe UI", sans-serif'>4 chips, complete</text><line x1="300.00" y1="134.00" x2="336.77" y2="149.23" stroke="#1baf7a" stroke-width="0.9" opacity="0.55"/><line x1="300.00" y1="134.00" x2="352.00" y2="186.00" stroke="#1baf7a" stroke-width="0.9" opacity="0.55"/><line x1="300.00" y1="134.00" x2="336.77" y2="222.77" stroke="#1baf7a" stroke-width="0.9" opacity="0.55"/><line x1="300.00" y1="134.00" x2="300.00" y2="238.00" stroke="#1baf7a" stroke-width="0.9" opacity="0.55"/><line x1="300.00" y1="134.00" x2="263.23" y2="222.77" stroke="#1baf7a" stroke-width="0.9" opacity="0.55"/><line x1="300.00" y1="134.00" x2="248.00" y2="186.00" stroke="#1baf7a" stroke-width="0.9" opacity="0.55"/><line x1="300.00" y1="134.00" x2="263.23" y2="149.23" stroke="#1baf7a" stroke-width="0.9" opacity="0.55"/><line x1="336.77" y1="149.23" x2="352.00" y2="186.00" stroke="#1baf7a" stroke-width="0.9" opacity="0.55"/><line x1="336.77" y1="149.23" x2="336.77" y2="222.77" stroke="#1baf7a" stroke-width="0.9" opacity="0.55"/><line x1="336.77" y1="149.23" x2="300.00" y2="238.00" stroke="#1baf7a" stroke-width="0.9" opacity="0.55"/><line x1="336.77" y1="149.23" x2="263.23" y2="222.77" stroke="#1baf7a" stroke-width="0.9" opacity="0.55"/><line x1="336.77" y1="149.23" x2="248.00" y2="186.00" stroke="#1baf7a" stroke-width="0.9" opacity="0.55"/><line x1="336.77" y1="149.23" x2="263.23" y2="149.23" stroke="#1baf7a" stroke-width="0.9" opacity="0.55"/><line x1="352.00" y1="186.00" x2="336.77" y2="222.77" stroke="#1baf7a" stroke-width="0.9" opacity="0.55"/><line x1="352.00" y1="186.00" x2="300.00" y2="238.00" stroke="#1baf7a" stroke-width="0.9" opacity="0.55"/><line x1="352.00" y1="186.00" x2="263.23" y2="222.77" stroke="#1baf7a" stroke-width="0.9" opacity="0.55"/><line x1="352.00" y1="186.00" x2="248.00" y2="186.00" stroke="#1baf7a" stroke-width="0.9" opacity="0.55"/><line x1="352.00" y1="186.00" x2="263.23" y2="149.23" stroke="#1baf7a" stroke-width="0.9" opacity="0.55"/><line x1="336.77" y1="222.77" x2="300.00" y2="238.00" stroke="#1baf7a" stroke-width="0.9" opacity="0.55"/><line x1="336.77" y1="222.77" x2="263.23" y2="222.77" stroke="#1baf7a" stroke-width="0.9" opacity="0.55"/><line x1="336.77" y1="222.77" x2="248.00" y2="186.00" stroke="#1baf7a" stroke-width="0.9" opacity="0.55"/><line x1="336.77" y1="222.77" x2="263.23" y2="149.23" stroke="#1baf7a" stroke-width="0.9" opacity="0.55"/><line x1="300.00" y1="238.00" x2="263.23" y2="222.77" stroke="#1baf7a" stroke-width="0.9" opacity="0.55"/><line x1="300.00" y1="238.00" x2="248.00" y2="186.00" stroke="#1baf7a" stroke-width="0.9" opacity="0.55"/><line x1="300.00" y1="238.00" x2="263.23" y2="149.23" stroke="#1baf7a" stroke-width="0.9" opacity="0.55"/><line x1="263.23" y1="222.77" x2="248.00" y2="186.00" stroke="#1baf7a" stroke-width="0.9" opacity="0.55"/><line x1="263.23" y1="222.77" x2="263.23" y2="149.23" stroke="#1baf7a" stroke-width="0.9" opacity="0.55"/><line x1="248.00" y1="186.00" x2="263.23" y2="149.23" stroke="#1baf7a" stroke-width="0.9" opacity="0.55"/><circle cx="300.00" cy="134.00" r="8.0" fill="#fcfcfb"/><circle cx="300.00" cy="134.00" r="6.0" fill="#1baf7a"/><circle cx="336.77" cy="149.23" r="8.0" fill="#fcfcfb"/><circle cx="336.77" cy="149.23" r="6.0" fill="#1baf7a"/><circle cx="352.00" cy="186.00" r="8.0" fill="#fcfcfb"/><circle cx="352.00" cy="186.00" r="6.0" fill="#1baf7a"/><circle cx="336.77" cy="222.77" r="8.0" fill="#fcfcfb"/><circle cx="336.77" cy="222.77" r="6.0" fill="#1baf7a"/><circle cx="300.00" cy="238.00" r="8.0" fill="#fcfcfb"/><circle cx="300.00" cy="238.00" r="6.0" fill="#1baf7a"/><circle cx="263.23" cy="222.77" r="8.0" fill="#fcfcfb"/><circle cx="263.23" cy="222.77" r="6.0" fill="#1baf7a"/><circle cx="248.00" cy="186.00" r="8.0" fill="#fcfcfb"/><circle cx="248.00" cy="186.00" r="6.0" fill="#1baf7a"/><circle cx="263.23" cy="149.23" r="8.0" fill="#fcfcfb"/><circle cx="263.23" cy="149.23" r="6.0" fill="#1baf7a"/><text x="300.00" y="248.00" fill="#52514e" font-size="11.5" font-weight="400" text-anchor="middle" font-family='system-ui, -apple-system, "Segoe UI", sans-serif'>group</text><text x="300.00" y="264.00" fill="#898781" font-size="10.5" font-weight="400" text-anchor="middle" font-family='system-ui, -apple-system, "Segoe UI", sans-serif'>8 blocks = 32 chips, copper</text><line x1="430.00" y1="186.00" x2="466.00" y2="186.00" stroke="#c3c2b7" stroke-width="1.5"/><path d="M466,180 L478,186 L466,192 Z" fill="#c3c2b7"/><text x="508.00" y="108.00" fill="#898781" font-size="11" font-weight="600" text-anchor="start" font-family='system-ui, -apple-system, "Segoe UI", sans-serif'>GLOBAL TIER — the difference</text><line x1="590.00" y1="134.00" x2="626.77" y2="149.23" stroke="#2a78d6" stroke-width="0.9" opacity="1.0"/><line x1="590.00" y1="134.00" x2="642.00" y2="186.00" stroke="#2a78d6" stroke-width="0.9" opacity="1.0"/><line x1="590.00" y1="134.00" x2="626.77" y2="222.77" stroke="#2a78d6" stroke-width="0.9" opacity="1.0"/><line x1="590.00" y1="134.00" x2="590.00" y2="238.00" stroke="#2a78d6" stroke-width="0.9" opacity="1.0"/><line x1="590.00" y1="134.00" x2="553.23" y2="222.77" stroke="#2a78d6" stroke-width="0.9" opacity="1.0"/><line x1="590.00" y1="134.00" x2="538.00" y2="186.00" stroke="#2a78d6" stroke-width="0.9" opacity="1.0"/><line x1="590.00" y1="134.00" x2="553.23" y2="149.23" stroke="#2a78d6" stroke-width="0.9" opacity="1.0"/><line x1="626.77" y1="149.23" x2="642.00" y2="186.00" stroke="#2a78d6" stroke-width="0.9" opacity="1.0"/><line x1="626.77" y1="149.23" x2="626.77" y2="222.77" stroke="#2a78d6" stroke-width="0.9" opacity="1.0"/><line x1="626.77" y1="149.23" x2="590.00" y2="238.00" stroke="#2a78d6" stroke-width="0.9" opacity="1.0"/><line x1="626.77" y1="149.23" x2="553.23" y2="222.77" stroke="#2a78d6" stroke-width="0.9" opacity="1.0"/><line x1="626.77" y1="149.23" x2="538.00" y2="186.00" stroke="#2a78d6" stroke-width="0.9" opacity="1.0"/><line x1="626.77" y1="149.23" x2="553.23" y2="149.23" stroke="#2a78d6" stroke-width="0.9" opacity="1.0"/><line x1="642.00" y1="186.00" x2="626.77" y2="222.77" stroke="#2a78d6" stroke-width="0.9" opacity="1.0"/><line x1="642.00" y1="186.00" x2="590.00" y2="238.00" stroke="#2a78d6" stroke-width="0.9" opacity="1.0"/><line x1="642.00" y1="186.00" x2="553.23" y2="222.77" stroke="#2a78d6" stroke-width="0.9" opacity="1.0"/><line x1="642.00" y1="186.00" x2="538.00" y2="186.00" stroke="#2a78d6" stroke-width="0.9" opacity="1.0"/><line x1="642.00" y1="186.00" x2="553.23" y2="149.23" stroke="#2a78d6" stroke-width="0.9" opacity="1.0"/><line x1="626.77" y1="222.77" x2="590.00" y2="238.00" stroke="#2a78d6" stroke-width="0.9" opacity="1.0"/><line x1="626.77" y1="222.77" x2="553.23" y2="222.77" stroke="#2a78d6" stroke-width="0.9" opacity="1.0"/><line x1="626.77" y1="222.77" x2="538.00" y2="186.00" stroke="#2a78d6" stroke-width="0.9" opacity="1.0"/><line x1="626.77" y1="222.77" x2="553.23" y2="149.23" stroke="#2a78d6" stroke-width="0.9" opacity="1.0"/><line x1="590.00" y1="238.00" x2="553.23" y2="222.77" stroke="#2a78d6" stroke-width="0.9" opacity="1.0"/><line x1="590.00" y1="238.00" x2="538.00" y2="186.00" stroke="#2a78d6" stroke-width="0.9" opacity="1.0"/><line x1="590.00" y1="238.00" x2="553.23" y2="149.23" stroke="#2a78d6" stroke-width="0.9" opacity="1.0"/><line x1="553.23" y1="222.77" x2="538.00" y2="186.00" stroke="#2a78d6" stroke-width="0.9" opacity="1.0"/><line x1="553.23" y1="222.77" x2="553.23" y2="149.23" stroke="#2a78d6" stroke-width="0.9" opacity="1.0"/><line x1="538.00" y1="186.00" x2="553.23" y2="149.23" stroke="#2a78d6" stroke-width="0.9" opacity="1.0"/><circle cx="590.00" cy="134.00" r="8.0" fill="#fcfcfb"/><circle cx="590.00" cy="134.00" r="6.0" fill="#2a78d6"/><circle cx="626.77" cy="149.23" r="8.0" fill="#fcfcfb"/><circle cx="626.77" cy="149.23" r="6.0" fill="#2a78d6"/><circle cx="642.00" cy="186.00" r="8.0" fill="#fcfcfb"/><circle cx="642.00" cy="186.00" r="6.0" fill="#2a78d6"/><circle cx="626.77" cy="222.77" r="8.0" fill="#fcfcfb"/><circle cx="626.77" cy="222.77" r="6.0" fill="#2a78d6"/><circle cx="590.00" cy="238.00" r="8.0" fill="#fcfcfb"/><circle cx="590.00" cy="238.00" r="6.0" fill="#2a78d6"/><circle cx="553.23" cy="222.77" r="8.0" fill="#fcfcfb"/><circle cx="553.23" cy="222.77" r="6.0" fill="#2a78d6"/><circle cx="538.00" cy="186.00" r="8.0" fill="#fcfcfb"/><circle cx="538.00" cy="186.00" r="6.0" fill="#2a78d6"/><circle cx="553.23" cy="149.23" r="8.0" fill="#fcfcfb"/><circle cx="553.23" cy="149.23" r="6.0" fill="#2a78d6"/><text x="590.00" y="248.00" fill="#2a78d6" font-size="11.5" font-weight="600" text-anchor="middle" font-family='system-ui, -apple-system, "Segoe UI", sans-serif'>Boardfly: complete</text><text x="590.00" y="264.00" fill="#898781" font-size="10.5" font-weight="400" text-anchor="middle" font-family='system-ui, -apple-system, "Segoe UI", sans-serif'>G−1 ports to reach G groups</text><line x1="748.00" y1="134.00" x2="800.00" y2="186.00" stroke="#eb6834" stroke-width="0.9" opacity="0.8"/><line x1="748.00" y1="134.00" x2="784.77" y2="222.77" stroke="#eb6834" stroke-width="0.9" opacity="0.8"/><line x1="784.77" y1="149.23" x2="784.77" y2="222.77" stroke="#eb6834" stroke-width="0.9" opacity="0.8"/><line x1="784.77" y1="149.23" x2="748.00" y2="238.00" stroke="#eb6834" stroke-width="0.9" opacity="0.8"/><line x1="800.00" y1="186.00" x2="748.00" y2="238.00" stroke="#eb6834" stroke-width="0.9" opacity="0.8"/><line x1="800.00" y1="186.00" x2="711.23" y2="222.77" stroke="#eb6834" stroke-width="0.9" opacity="0.8"/><line x1="784.77" y1="222.77" x2="711.23" y2="222.77" stroke="#eb6834" stroke-width="0.9" opacity="0.8"/><line x1="784.77" y1="222.77" x2="696.00" y2="186.00" stroke="#eb6834" stroke-width="0.9" opacity="0.8"/><line x1="748.00" y1="238.00" x2="696.00" y2="186.00" stroke="#eb6834" stroke-width="0.9" opacity="0.8"/><line x1="748.00" y1="238.00" x2="711.23" y2="149.23" stroke="#eb6834" stroke-width="0.9" opacity="0.8"/><line x1="711.23" y1="222.77" x2="711.23" y2="149.23" stroke="#eb6834" stroke-width="0.9" opacity="0.8"/><line x1="711.23" y1="222.77" x2="748.00" y2="134.00" stroke="#eb6834" stroke-width="0.9" opacity="0.8"/><line x1="696.00" y1="186.00" x2="748.00" y2="134.00" stroke="#eb6834" stroke-width="0.9" opacity="0.8"/><line x1="696.00" y1="186.00" x2="784.77" y2="149.23" stroke="#eb6834" stroke-width="0.9" opacity="0.8"/><line x1="711.23" y1="149.23" x2="784.77" y2="149.23" stroke="#eb6834" stroke-width="0.9" opacity="0.8"/><line x1="711.23" y1="149.23" x2="800.00" y2="186.00" stroke="#eb6834" stroke-width="0.9" opacity="0.8"/><circle cx="748.00" cy="134.00" r="8.0" fill="#fcfcfb"/><circle cx="748.00" cy="134.00" r="6.0" fill="#eb6834"/><circle cx="784.77" cy="149.23" r="8.0" fill="#fcfcfb"/><circle cx="784.77" cy="149.23" r="6.0" fill="#eb6834"/><circle cx="800.00" cy="186.00" r="8.0" fill="#fcfcfb"/><circle cx="800.00" cy="186.00" r="6.0" fill="#eb6834"/><circle cx="784.77" cy="222.77" r="8.0" fill="#fcfcfb"/><circle cx="784.77" cy="222.77" r="6.0" fill="#eb6834"/><circle cx="748.00" cy="238.00" r="8.0" fill="#fcfcfb"/><circle cx="748.00" cy="238.00" r="6.0" fill="#eb6834"/><circle cx="711.23" cy="222.77" r="8.0" fill="#fcfcfb"/><circle cx="711.23" cy="222.77" r="6.0" fill="#eb6834"/><circle cx="696.00" cy="186.00" r="8.0" fill="#fcfcfb"/><circle cx="696.00" cy="186.00" r="6.0" fill="#eb6834"/><circle cx="711.23" cy="149.23" r="8.0" fill="#fcfcfb"/><circle cx="711.23" cy="149.23" r="6.0" fill="#eb6834"/><text x="748.00" y="248.00" fill="#eb6834" font-size="11.5" font-weight="600" text-anchor="middle" font-family='system-ui, -apple-system, "Segoe UI", sans-serif'>Shiftfly: shift graph</text><text x="748.00" y="264.00" fill="#898781" font-size="10.5" font-weight="400" text-anchor="middle" font-family='system-ui, -apple-system, "Segoe UI", sans-serif'>2d ports, diameter ⌈log_d G⌉</text><line x1="38.00" y1="304.00" x2="782.00" y2="304.00" stroke="#e1e0d9" stroke-width="1"/><text x="38.00" y="326.00" fill="#52514e" font-size="12" font-weight="600" text-anchor="start" font-family='system-ui, -apple-system, "Segoe UI", sans-serif'>Consequence at 400,000 chips (12,500 groups, 40 optical ports per group)</text><rect x="38.00" y="345.00" width="10.00" height="10.00" fill="#2a78d6" rx="2"/><text x="56.00" y="354.00" fill="#0b0b0b" font-size="12" font-weight="600" text-anchor="start" font-family='system-ui, -apple-system, "Segoe UI", sans-serif'>Boardfly</text><text x="132.00" y="354.00" fill="#52514e" font-size="11.5" font-weight="400" text-anchor="start" font-family='system-ui, -apple-system, "Segoe UI", sans-serif'>complete tier needs 12,499 ports — infeasible, so a pod tier is stacked and diameters add</text><text x="782.00" y="354.00" fill="#2a78d6" font-size="12" font-weight="600" text-anchor="end" font-family='system-ui, -apple-system, "Segoe UI", sans-serif' font-variant-numeric="tabular-nums">23 chip hops</text><rect x="38.00" y="379.00" width="10.00" height="10.00" fill="#eb6834" rx="2"/><text x="56.00" y="388.00" fill="#0b0b0b" font-size="12" font-weight="600" text-anchor="start" font-family='system-ui, -apple-system, "Segoe UI", sans-serif'>Shiftfly</text><text x="132.00" y="388.00" fill="#52514e" font-size="11.5" font-weight="400" text-anchor="start" font-family='system-ui, -apple-system, "Segoe UI", sans-serif'>one flat graph, no pod boundary, no added tier</text><text x="782.00" y="388.00" fill="#eb6834" font-size="12" font-weight="600" text-anchor="end" font-family='system-ui, -apple-system, "Segoe UI", sans-serif' font-variant-numeric="tabular-nums">19 chip hops</text><text x="38.00" y="440.00" fill="#898781" font-size="11.5" font-weight="400" text-anchor="start" font-family='system-ui, -apple-system, "Segoe UI", sans-serif'>Both tiers ride the optical circuit switch that already exists; the wiring is a permutation, not new cable.</text></svg>