<svg xmlns="http://www.w3.org/2000/svg" width="780" height="390" viewBox="0 0 780 390" role="img" aria-label="worst-case chip hops"><title>worst-case chip hops</title><rect width="780" height="390" fill="#1a1a19"/><line x1="78.00" y1="304.00" x2="746.00" y2="304.00" stroke="#2c2c2a" stroke-width="1"/><text x="68.00" y="308.00" fill="#898781" font-size="10.5" font-weight="400" text-anchor="end" font-family='system-ui, -apple-system, "Segoe UI", sans-serif' font-variant-numeric="tabular-nums">0</text><line x1="78.00" y1="249.20" x2="746.00" y2="249.20" stroke="#2c2c2a" stroke-width="1"/><text x="68.00" y="253.20" fill="#898781" font-size="10.5" font-weight="400" text-anchor="end" font-family='system-ui, -apple-system, "Segoe UI", sans-serif' font-variant-numeric="tabular-nums">5</text><line x1="78.00" y1="194.40" x2="746.00" y2="194.40" stroke="#2c2c2a" stroke-width="1"/><text x="68.00" y="198.40" fill="#898781" font-size="10.5" font-weight="400" text-anchor="end" font-family='system-ui, -apple-system, "Segoe UI", sans-serif' font-variant-numeric="tabular-nums">10</text><line x1="78.00" y1="139.60" x2="746.00" y2="139.60" stroke="#2c2c2a" stroke-width="1"/><text x="68.00" y="143.60" fill="#898781" font-size="10.5" font-weight="400" text-anchor="end" font-family='system-ui, -apple-system, "Segoe UI", sans-serif' font-variant-numeric="tabular-nums">15</text><line x1="78.00" y1="84.80" x2="746.00" y2="84.80" stroke="#2c2c2a" stroke-width="1"/><text x="68.00" y="88.80" fill="#898781" font-size="10.5" font-weight="400" text-anchor="end" font-family='system-ui, -apple-system, "Segoe UI", sans-serif' font-variant-numeric="tabular-nums">21</text><line x1="78.00" y1="30.00" x2="746.00" y2="30.00" stroke="#2c2c2a" stroke-width="1"/><text x="68.00" y="34.00" fill="#898781" font-size="10.5" font-weight="400" text-anchor="end" font-family='system-ui, -apple-system, "Segoe UI", sans-serif' font-variant-numeric="tabular-nums">26</text><line x1="78.00" y1="304.00" x2="746.00" y2="304.00" stroke="#383835" stroke-width="1"/><line x1="78.00" y1="30.00" x2="78.00" y2="304.00" stroke="#383835" stroke-width="1"/><text x="78.00" y="322.00" fill="#898781" font-size="10.5" font-weight="400" text-anchor="middle" font-family='system-ui, -apple-system, "Segoe UI", sans-serif' font-variant-numeric="tabular-nums">1,152</text><text x="212.06" y="322.00" fill="#898781" font-size="10.5" font-weight="400" text-anchor="middle" font-family='system-ui, -apple-system, "Segoe UI", sans-serif' font-variant-numeric="tabular-nums">4,608</text><text x="346.12" y="322.00" fill="#898781" font-size="10.5" font-weight="400" text-anchor="middle" font-family='system-ui, -apple-system, "Segoe UI", sans-serif' font-variant-numeric="tabular-nums">18,432</text><text x="480.18" y="322.00" fill="#898781" font-size="10.5" font-weight="400" text-anchor="middle" font-family='system-ui, -apple-system, "Segoe UI", sans-serif' font-variant-numeric="tabular-nums">73,728</text><text x="605.27" y="322.00" fill="#898781" font-size="10.5" font-weight="400" text-anchor="middle" font-family='system-ui, -apple-system, "Segoe UI", sans-serif' font-variant-numeric="tabular-nums">268,800</text><line x1="643.71" y1="304.00" x2="643.71" y2="308.00" stroke="#383835" stroke-width="1"/><text x="746.00" y="322.00" fill="#898781" font-size="10.5" font-weight="400" text-anchor="middle" font-family='system-ui, -apple-system, "Segoe UI", sans-serif' font-variant-numeric="tabular-nums">1,152,000</text><path d="M78.00,229.54 L212.06,144.45 L346.12,144.45 L480.18,101.90 L605.27,59.36 L643.71,59.36 L746.00,59.36" fill="none" stroke="#3987e5" stroke-width="2" stroke-linejoin="round" stroke-linecap="round"/><circle cx="78.00" cy="229.54" r="6.5" fill="#1a1a19"/><circle cx="78.00" cy="229.54" r="4.5" fill="#3987e5"/><circle cx="212.06" cy="144.45" r="6.5" fill="#1a1a19"/><circle cx="212.06" cy="144.45" r="4.5" fill="#3987e5"/><circle cx="346.12" cy="144.45" r="6.5" fill="#1a1a19"/><circle cx="346.12" cy="144.45" r="4.5" fill="#3987e5"/><circle cx="480.18" cy="101.90" r="6.5" fill="#1a1a19"/><circle cx="480.18" cy="101.90" r="4.5" fill="#3987e5"/><circle cx="605.27" cy="59.36" r="6.5" fill="#1a1a19"/><circle cx="605.27" cy="59.36" r="4.5" fill="#3987e5"/><circle cx="643.71" cy="59.36" r="6.5" fill="#1a1a19"/><circle cx="643.71" cy="59.36" r="4.5" fill="#3987e5"/><circle cx="746.00" cy="59.36" r="6.5" fill="#1a1a19"/><circle cx="746.00" cy="59.36" r="4.5" fill="#3987e5"/><text x="740.00" y="45.36" fill="#3987e5" font-size="12" font-weight="600" text-anchor="end" font-family='system-ui, -apple-system, "Segoe UI", sans-serif'>Boardfly-of-pods</text><path d="M78.00,187.00 L212.06,187.00 L346.12,144.45 L480.18,144.45 L605.27,144.45 L643.71,101.90 L746.00,101.90" fill="none" stroke="#d95926" stroke-width="2" stroke-linejoin="round" stroke-linecap="round"/><circle cx="78.00" cy="187.00" r="6.5" fill="#1a1a19"/><circle cx="78.00" cy="187.00" r="4.5" fill="#d95926"/><circle cx="212.06" cy="187.00" r="6.5" fill="#1a1a19"/><circle cx="212.06" cy="187.00" r="4.5" fill="#d95926"/><circle cx="346.12" cy="144.45" r="6.5" fill="#1a1a19"/><circle cx="346.12" cy="144.45" r="4.5" fill="#d95926"/><circle cx="480.18" cy="144.45" r="6.5" fill="#1a1a19"/><circle cx="480.18" cy="144.45" r="4.5" fill="#d95926"/><circle cx="605.27" cy="144.45" r="6.5" fill="#1a1a19"/><circle cx="605.27" cy="144.45" r="4.5" fill="#d95926"/><circle cx="643.71" cy="101.90" r="6.5" fill="#1a1a19"/><circle cx="643.71" cy="101.90" r="4.5" fill="#d95926"/><circle cx="746.00" cy="101.90" r="6.5" fill="#1a1a19"/><circle cx="746.00" cy="101.90" r="4.5" fill="#d95926"/><text x="740.00" y="87.90" fill="#d95926" font-size="12" font-weight="600" text-anchor="end" font-family='system-ui, -apple-system, "Segoe UI", sans-serif'>Shiftfly</text><text x="412.00" y="356.00" fill="#c3c2b7" font-size="12" font-weight="400" text-anchor="middle" font-family='system-ui, -apple-system, "Segoe UI", sans-serif'>chips in the system (log scale)</text><g transform="translate(26.0,167.0) rotate(-90)"><text x="0" y="0" fill="#c3c2b7" font-size="12" text-anchor="middle" font-family='system-ui, -apple-system, "Segoe UI", sans-serif'>worst-case chip hops</text></g><rect x="78.00" y="371.00" width="11.00" height="11.00" fill="#3987e5" rx="2"/><text x="95.00" y="380.00" fill="#c3c2b7" font-size="12" font-weight="400" text-anchor="start" font-family='system-ui, -apple-system, "Segoe UI", sans-serif'>Boardfly-of-pods</text><rect x="288.00" y="371.00" width="11.00" height="11.00" fill="#d95926" rx="2"/><text x="305.00" y="380.00" fill="#c3c2b7" font-size="12" font-weight="400" text-anchor="start" font-family='system-ui, -apple-system, "Segoe UI", sans-serif'>Shiftfly</text></svg>