<svg xmlns="http://www.w3.org/2000/svg" width="780" height="470" viewBox="0 0 780 470" role="img" aria-label="Expansion: spectral gap of the group graph"><title>Expansion: spectral gap of the group graph</title><rect width="780" height="470" fill="#1a1a19"/><text x="40.00" y="44.00" fill="#ffffff" font-size="19" font-weight="600" text-anchor="start" font-family='system-ui, -apple-system, "Segoe UI", sans-serif'>Expansion: spectral gap of the group graph</text><text x="40.00" y="68.00" fill="#c3c2b7" font-size="12.5" font-weight="400" text-anchor="start" font-family='system-ui, -apple-system, "Segoe UI", sans-serif'>Higher is better. A hierarchy of near-cliques expands poorly; a flat shift graph does not.</text><line x1="78.00" y1="384.00" x2="746.00" y2="384.00" stroke="#2c2c2a" stroke-width="1"/><text x="68.00" y="388.00" fill="#898781" font-size="10.5" font-weight="400" text-anchor="end" font-family='system-ui, -apple-system, "Segoe UI", sans-serif' font-variant-numeric="tabular-nums">0.00</text><line x1="78.00" y1="326.40" x2="746.00" y2="326.40" stroke="#2c2c2a" stroke-width="1"/><text x="68.00" y="330.40" fill="#898781" font-size="10.5" font-weight="400" text-anchor="end" font-family='system-ui, -apple-system, "Segoe UI", sans-serif' font-variant-numeric="tabular-nums">0.23</text><line x1="78.00" y1="268.80" x2="746.00" y2="268.80" stroke="#2c2c2a" stroke-width="1"/><text x="68.00" y="272.80" fill="#898781" font-size="10.5" font-weight="400" text-anchor="end" font-family='system-ui, -apple-system, "Segoe UI", sans-serif' font-variant-numeric="tabular-nums">0.46</text><line x1="78.00" y1="211.20" x2="746.00" y2="211.20" stroke="#2c2c2a" stroke-width="1"/><text x="68.00" y="215.20" fill="#898781" font-size="10.5" font-weight="400" text-anchor="end" font-family='system-ui, -apple-system, "Segoe UI", sans-serif' font-variant-numeric="tabular-nums">0.69</text><line x1="78.00" y1="153.60" x2="746.00" y2="153.60" stroke="#2c2c2a" stroke-width="1"/><text x="68.00" y="157.60" fill="#898781" font-size="10.5" font-weight="400" text-anchor="end" font-family='system-ui, -apple-system, "Segoe UI", sans-serif' font-variant-numeric="tabular-nums">0.92</text><line x1="78.00" y1="96.00" x2="746.00" y2="96.00" stroke="#2c2c2a" stroke-width="1"/><text x="68.00" y="100.00" fill="#898781" font-size="10.5" font-weight="400" text-anchor="end" font-family='system-ui, -apple-system, "Segoe UI", sans-serif' font-variant-numeric="tabular-nums">1.15</text><line x1="78.00" y1="384.00" x2="746.00" y2="384.00" stroke="#383835" stroke-width="1"/><line x1="78.00" y1="96.00" x2="78.00" y2="384.00" stroke="#383835" stroke-width="1"/><text x="78.00" y="402.00" fill="#898781" font-size="10.5" font-weight="400" text-anchor="middle" font-family='system-ui, -apple-system, "Segoe UI", sans-serif' font-variant-numeric="tabular-nums">1,152</text><text x="212.06" y="402.00" fill="#898781" font-size="10.5" font-weight="400" text-anchor="middle" font-family='system-ui, -apple-system, "Segoe UI", sans-serif' font-variant-numeric="tabular-nums">4,608</text><text x="346.12" y="402.00" fill="#898781" font-size="10.5" font-weight="400" text-anchor="middle" font-family='system-ui, -apple-system, "Segoe UI", sans-serif' font-variant-numeric="tabular-nums">18,432</text><text x="480.18" y="402.00" fill="#898781" font-size="10.5" font-weight="400" text-anchor="middle" font-family='system-ui, -apple-system, "Segoe UI", sans-serif' font-variant-numeric="tabular-nums">73,728</text><text x="605.27" y="402.00" fill="#898781" font-size="10.5" font-weight="400" text-anchor="middle" font-family='system-ui, -apple-system, "Segoe UI", sans-serif' font-variant-numeric="tabular-nums">268,800</text><line x1="643.71" y1="384.00" x2="643.71" y2="388.00" stroke="#383835" stroke-width="1"/><text x="746.00" y="402.00" fill="#898781" font-size="10.5" font-weight="400" text-anchor="middle" font-family='system-ui, -apple-system, "Segoe UI", sans-serif' font-variant-numeric="tabular-nums">1,152,000</text><path d="M78.00,126.86 L212.06,355.71 L346.12,354.25 L480.18,356.44 L605.27,356.15 L643.71,354.71 L746.00,354.82" fill="none" stroke="#3987e5" stroke-width="2" stroke-linejoin="round" stroke-linecap="round"/><circle cx="78.00" cy="126.86" r="6.5" fill="#1a1a19"/><circle cx="78.00" cy="126.86" r="4.5" fill="#3987e5"/><circle cx="212.06" cy="355.71" r="6.5" fill="#1a1a19"/><circle cx="212.06" cy="355.71" r="4.5" fill="#3987e5"/><circle cx="346.12" cy="354.25" r="6.5" fill="#1a1a19"/><circle cx="346.12" cy="354.25" r="4.5" fill="#3987e5"/><circle cx="480.18" cy="356.44" r="6.5" fill="#1a1a19"/><circle cx="480.18" cy="356.44" r="4.5" fill="#3987e5"/><circle cx="605.27" cy="356.15" r="6.5" fill="#1a1a19"/><circle cx="605.27" cy="356.15" r="4.5" fill="#3987e5"/><circle cx="643.71" cy="354.71" r="6.5" fill="#1a1a19"/><circle cx="643.71" cy="354.71" r="4.5" fill="#3987e5"/><circle cx="746.00" cy="354.82" r="6.5" fill="#1a1a19"/><circle cx="746.00" cy="354.82" r="4.5" fill="#3987e5"/><text x="740.00" y="340.82" fill="#3987e5" font-size="12" font-weight="600" text-anchor="end" font-family='system-ui, -apple-system, "Segoe UI", sans-serif'>Boardfly-of-pods</text><path d="M78.00,173.24 L212.06,245.86 L346.12,262.50 L480.18,306.33 L605.27,307.56 L643.71,316.45 L746.00,333.61" fill="none" stroke="#d95926" stroke-width="2" stroke-linejoin="round" stroke-linecap="round"/><circle cx="78.00" cy="173.24" r="6.5" fill="#1a1a19"/><circle cx="78.00" cy="173.24" r="4.5" fill="#d95926"/><circle cx="212.06" cy="245.86" r="6.5" fill="#1a1a19"/><circle cx="212.06" cy="245.86" r="4.5" fill="#d95926"/><circle cx="346.12" cy="262.50" r="6.5" fill="#1a1a19"/><circle cx="346.12" cy="262.50" r="4.5" fill="#d95926"/><circle cx="480.18" cy="306.33" r="6.5" fill="#1a1a19"/><circle cx="480.18" cy="306.33" r="4.5" fill="#d95926"/><circle cx="605.27" cy="307.56" r="6.5" fill="#1a1a19"/><circle cx="605.27" cy="307.56" r="4.5" fill="#d95926"/><circle cx="643.71" cy="316.45" r="6.5" fill="#1a1a19"/><circle cx="643.71" cy="316.45" r="4.5" fill="#d95926"/><circle cx="746.00" cy="333.61" r="6.5" fill="#1a1a19"/><circle cx="746.00" cy="333.61" r="4.5" fill="#d95926"/><text x="740.00" y="319.61" fill="#d95926" font-size="12" font-weight="600" text-anchor="end" font-family='system-ui, -apple-system, "Segoe UI", sans-serif'>Shiftfly</text><text x="412.00" y="436.00" fill="#c3c2b7" font-size="12" font-weight="400" text-anchor="middle" font-family='system-ui, -apple-system, "Segoe UI", sans-serif'>chips in the system (log scale)</text><g transform="translate(26.0,240.0) rotate(-90)"><text x="0" y="0" fill="#c3c2b7" font-size="12" text-anchor="middle" font-family='system-ui, -apple-system, "Segoe UI", sans-serif'>1 - lambda_2</text></g><rect x="78.00" y="451.00" width="11.00" height="11.00" fill="#3987e5" rx="2"/><text x="95.00" y="460.00" fill="#c3c2b7" font-size="12" font-weight="400" text-anchor="start" font-family='system-ui, -apple-system, "Segoe UI", sans-serif'>Boardfly-of-pods</text><rect x="288.00" y="451.00" width="11.00" height="11.00" fill="#d95926" rx="2"/><text x="305.00" y="460.00" fill="#c3c2b7" font-size="12" font-weight="400" text-anchor="start" font-family='system-ui, -apple-system, "Segoe UI", sans-serif'>Shiftfly</text></svg>